<?xml version="1.0" standalone="no"?>
<!DOCTYPE svg PUBLIC "-//W3C//DTD SVG 20010904//EN"
 "http://www.w3.org/TR/2001/REC-SVG-20010904/DTD/svg10.dtd">
<svg version="1.0" xmlns="http://www.w3.org/2000/svg"
 width="512.000000pt" height="512.000000pt" viewBox="0 0 512.000000 512.000000"
 preserveAspectRatio="xMidYMid meet">
<metadata>
Created by potrace 1.11, written by Peter Selinger 2001-2013
</metadata>
<g transform="translate(0.000000,512.000000) scale(0.100000,-0.100000)"
fill="#000000" stroke="none">
<path d="M765 4225 c-121 -31 -245 -119 -309 -219 -126 -198 -124 -422 4 -613
l31 -46 -1 -534 -1 -535 -32 -51 c-18 -29 -39 -68 -47 -87 -7 -19 -17 -40 -22
-46 -4 -6 -13 -47 -19 -91 -12 -81 -2 -209 20 -251 5 -9 17 -36 26 -58 l17
-41 -33 -64 c-30 -57 -34 -73 -34 -144 0 -79 18 -145 51 -185 10 -12 7 -27
-19 -80 -29 -58 -32 -74 -32 -151 1 -73 5 -93 29 -140 36 -70 85 -120 144
-148 26 -12 55 -26 64 -32 11 -5 764 -9 1943 -9 l1924 0 58 25 c70 31 135 92
171 160 22 44 26 62 26 145 1 86 -2 100 -28 151 l-30 56 30 58 c26 52 29 69
29 149 0 84 -2 96 -34 153 -23 44 -31 67 -24 75 5 7 21 40 34 73 21 53 24 75
23 185 -1 118 -3 129 -32 193 -17 37 -45 87 -62 112 l-30 44 0 531 0 531 31
45 c17 25 44 77 61 117 30 67 32 80 32 198 1 78 -3 135 -11 150 -6 13 -26 56
-44 94 -47 102 -139 191 -253 246 -80 38 -95 42 -189 46 -125 7 -187 -5 -287
-55 -89 -44 -185 -134 -221 -207 -14 -27 -31 -60 -37 -72 l-12 -23 -58 31
c-82 45 -228 73 -302 58 -120 -24 -141 -30 -190 -59 -28 -17 -52 -30 -54 -30
-2 0 -18 28 -36 63 -64 122 -162 212 -292 265 -75 30 -223 41 -307 23 -156
-33 -304 -150 -372 -295 -11 -25 -26 -46 -31 -46 -6 0 -38 13 -72 29 -86 41
-218 64 -287 51 -101 -20 -144 -34 -197 -62 l-52 -28 -25 53 c-70 144 -200
253 -353 292 -68 18 -208 18 -277 0z m227 -267 c53 -16 131 -87 159 -146 28
-56 30 -156 6 -214 -23 -55 -91 -123 -147 -147 -28 -12 -50 -23 -50 -26 0 -2
21 -14 46 -27 25 -12 55 -35 66 -50 11 -16 84 -155 163 -310 79 -155 147 -284
152 -285 5 -2 42 65 83 148 80 161 128 220 188 234 49 10 46 21 -10 40 -67 22
-121 65 -156 123 -23 41 -27 58 -27 127 0 94 20 140 84 198 55 49 101 67 178
67 76 0 117 -15 173 -66 103 -93 118 -241 37 -358 -25 -35 -99 -83 -150 -97
-42 -11 -42 -23 0 -34 72 -17 100 -51 186 -222 45 -89 86 -162 91 -160 6 2 75
134 155 294 81 160 154 301 165 312 10 11 38 30 62 42 24 11 44 22 44 24 0 2
-19 13 -43 23 -187 83 -231 311 -87 450 68 65 174 89 272 62 91 -26 174 -130
185 -233 11 -112 -61 -230 -168 -276 -45 -20 -58 -41 -25 -41 7 0 32 -14 54
-30 38 -27 58 -62 192 -330 83 -165 153 -300 158 -300 4 0 42 70 85 154 82
163 126 218 188 231 44 10 44 23 0 35 -112 30 -201 143 -201 256 0 109 86 226
185 254 24 7 73 11 108 8 82 -5 151 -47 199 -121 28 -44 33 -62 37 -124 3 -64
0 -81 -24 -128 -33 -69 -94 -121 -163 -141 -58 -17 -58 -25 0 -43 63 -20 107
-78 183 -235 39 -80 75 -145 80 -146 6 0 75 129 154 288 78 158 151 297 161
310 11 13 42 36 70 51 l51 28 -44 17 c-194 74 -239 325 -84 462 54 47 102 64
184 64 153 0 274 -135 260 -290 -9 -105 -59 -176 -158 -224 l-71 -34 30 -17
c63 -38 60 19 65 -980 l4 -910 48 -6 c76 -9 107 -60 63 -106 -16 -17 -32 -23
-65 -23 -53 0 -55 -5 -51 -160 l3 -115 49 -6 c76 -8 110 -65 66 -109 -20 -20
-33 -20 -1892 -20 -1727 0 -1873 1 -1890 17 -10 9 -18 30 -18 49 0 42 30 64
88 64 l43 0 -3 138 -3 137 -45 3 c-55 4 -80 25 -80 67 0 41 20 58 78 65 l45 5
4 890 c2 490 6 904 8 922 4 21 19 44 45 66 l40 34 -54 22 c-110 45 -171 137
-170 256 1 108 52 192 146 239 58 29 142 35 210 14z"/>
<path d="M2443 2306 c-104 -38 -185 -120 -214 -218 -15 -50 -12 -157 5 -206
52 -144 190 -233 342 -219 82 8 148 40 209 102 114 117 121 317 14 439 -48 54
-88 80 -165 106 -74 25 -113 24 -191 -4z m99 -52 c72 -34 100 -133 58 -201
-22 -37 -86 -73 -128 -73 -34 0 -86 33 -115 72 -28 37 -27 119 0 157 41 56
122 76 185 45z"/>
<path d="M1390 2191 c-244 -75 -288 -382 -71 -509 40 -24 56 -27 131 -27 74 0
91 3 130 27 96 57 143 134 143 238 0 85 -26 143 -93 203 -70 63 -166 90 -240
68z m56 -121 c1 0 9 -16 19 -36 19 -41 14 -78 -17 -111 -31 -33 -100 -32 -133
2 -29 28 -34 88 -10 123 20 27 71 41 110 30 16 -4 31 -8 31 -8z"/>
<path d="M3580 2191 c-130 -40 -210 -143 -210 -271 0 -103 47 -184 139 -238
40 -24 56 -27 131 -27 93 0 121 10 186 68 81 70 109 213 63 312 -53 113 -203
188 -309 156z m65 -143 c32 -38 32 -78 -1 -117 -22 -26 -33 -31 -70 -31 -59 0
-94 32 -94 87 0 49 22 80 63 91 46 12 74 4 102 -30z"/>
</g>
</svg>
