<?xml version="1.0" standalone="no"?>
<!DOCTYPE svg PUBLIC "-//W3C//DTD SVG 20010904//EN"
 "http://www.w3.org/TR/2001/REC-SVG-20010904/DTD/svg10.dtd">
<svg version="1.0" xmlns="http://www.w3.org/2000/svg"
 width="685.000000pt" height="685.000000pt" viewBox="0 0 685.000000 685.000000"
 preserveAspectRatio="xMidYMid meet">
<metadata>
Created by potrace 1.11, written by Peter Selinger 2001-2013
</metadata>
<g transform="translate(0.000000,685.000000) scale(0.100000,-0.100000)"
fill="#000000" stroke="none">
<path d="M1065 5664 c-245 -57 -435 -217 -528 -444 -32 -77 -57 -195 -57 -265
0 -51 22 -177 41 -230 21 -60 91 -192 115 -218 l25 -27 -1 -714 -1 -714 -48
-73 c-81 -125 -113 -219 -127 -379 -9 -96 29 -263 78 -352 15 -26 18 -41 11
-50 -47 -59 -93 -192 -93 -268 0 -58 28 -159 61 -218 28 -49 29 -55 15 -80
-45 -84 -76 -186 -76 -250 1 -57 26 -152 57 -210 51 -98 135 -170 251 -215
l57 -22 2560 0 c2488 0 2562 1 2615 19 183 63 310 236 310 423 0 80 -16 142
-58 221 l-33 63 22 30 c36 51 69 164 69 237 0 84 -29 179 -77 251 l-22 34 23
41 c21 38 36 83 65 192 15 57 14 187 -3 264 -25 116 -63 201 -127 287 l-39 52
0 712 0 711 31 39 c60 76 98 162 138 315 21 80 9 259 -24 349 -40 107 -123
239 -189 299 -85 76 -235 166 -276 166 -9 0 -22 6 -28 13 -17 16 -358 17 -393
1 -13 -7 -46 -20 -74 -30 -154 -55 -304 -193 -380 -349 -44 -90 -37 -88 -118
-46 -140 74 -283 99 -422 77 -127 -21 -170 -34 -245 -77 -36 -20 -68 -34 -73
-30 -4 4 -26 44 -50 89 -23 44 -68 110 -100 146 -64 72 -194 164 -272 191 -27
9 -61 22 -74 29 -15 7 -85 11 -185 11 -172 0 -216 -8 -329 -62 -136 -65 -279
-212 -337 -345 -13 -32 -29 -58 -35 -58 -5 0 -41 15 -80 34 -222 109 -443 107
-663 -6 l-72 -37 -35 71 c-19 39 -50 91 -69 117 -77 104 -211 206 -321 245
-27 10 -59 23 -70 29 -20 11 -301 20 -340 11z m244 -360 c91 -31 158 -84 205
-158 47 -74 59 -121 55 -213 -3 -68 -9 -91 -39 -149 -41 -80 -121 -152 -196
-175 -47 -14 -71 -39 -39 -39 26 0 120 -65 147 -102 14 -18 110 -202 213 -408
103 -206 191 -379 195 -384 5 -4 37 50 72 120 34 71 65 131 68 134 3 3 14 25
25 50 28 66 70 132 100 158 28 25 122 72 142 72 7 0 13 5 13 10 0 6 -8 10 -17
10 -80 1 -212 95 -258 184 -85 163 -41 355 104 459 67 48 125 67 210 67 70 0
171 -25 171 -42 0 -5 6 -8 13 -8 25 0 116 -105 142 -163 20 -47 25 -73 25
-142 0 -47 -4 -93 -9 -103 -5 -9 -17 -35 -27 -57 -22 -47 -107 -135 -149 -155
-50 -23 -99 -40 -117 -40 -10 0 -18 -4 -18 -10 0 -5 7 -10 16 -10 8 0 40 -12
69 -26 94 -46 108 -64 228 -307 54 -108 104 -197 110 -197 7 0 98 174 202 386
145 295 199 395 229 426 41 41 103 78 131 78 31 0 14 19 -32 36 -66 24 -125
66 -166 117 -108 133 -116 285 -22 432 43 67 149 145 197 145 9 0 20 5 23 10
11 18 136 11 194 -10 150 -55 242 -176 249 -331 5 -91 -13 -151 -65 -224 -50
-69 -113 -116 -194 -144 -31 -11 -39 -31 -14 -31 26 0 120 -65 145 -100 12
-17 107 -202 211 -411 104 -208 195 -379 202 -379 6 1 55 88 107 195 100 206
144 268 206 299 22 10 47 22 56 27 10 5 25 9 33 9 8 0 15 5 15 10 0 6 -11 10
-25 10 -14 0 -33 4 -43 9 -9 5 -34 17 -55 27 -123 61 -197 179 -197 319 0 128
46 210 177 316 7 5 26 12 43 16 17 3 33 10 36 14 7 12 191 11 199 0 3 -5 19
-13 36 -16 31 -7 40 -13 106 -69 71 -60 113 -158 113 -264 0 -121 -66 -240
-169 -300 -51 -30 -107 -52 -133 -52 -10 0 -18 -4 -18 -10 0 -5 7 -10 15 -10
15 0 21 -2 85 -35 67 -35 106 -89 207 -295 54 -109 103 -199 110 -200 6 0 100
178 209 396 167 335 204 401 238 430 43 37 91 64 113 64 19 0 16 20 -4 27
-178 60 -281 202 -271 376 13 237 253 406 467 327 194 -71 296 -251 247 -435
-34 -128 -115 -215 -243 -260 -51 -18 -69 -35 -38 -35 25 0 90 -73 103 -116 9
-32 12 -321 12 -1233 l0 -1191 55 0 c30 0 55 -4 55 -9 0 -5 9 -11 20 -14 27
-7 53 -69 41 -99 -15 -40 -45 -58 -109 -64 l-62 -7 0 -183 0 -184 55 0 c65 0
99 -18 114 -62 11 -31 4 -55 -27 -90 -14 -17 -147 -18 -2528 -18 l-2513 0 -20
26 c-24 30 -26 61 -10 98 15 32 30 38 104 45 l60 6 0 180 0 180 -65 8 c-51 6
-70 13 -87 33 -35 38 -30 80 13 120 31 30 42 34 89 34 l53 0 -2 428 c0 235 0
781 2 1213 l2 786 31 46 c16 25 43 52 60 59 16 7 29 15 29 18 0 3 -24 14 -54
24 -108 37 -210 143 -234 245 -21 88 -22 106 -12 160 23 122 92 216 198 267
31 15 64 31 72 35 26 14 143 9 189 -7z"/>
<path d="M3345 3110 c-3 -5 -22 -10 -41 -10 -19 0 -34 -4 -34 -10 0 -5 -6 -10
-14 -10 -30 0 -115 -54 -164 -103 -53 -55 -112 -156 -112 -194 0 -12 -4 -25
-10 -28 -12 -7 -14 -177 -2 -191 4 -5 16 -35 27 -66 10 -32 22 -58 26 -58 4 0
11 -9 14 -21 9 -26 85 -103 133 -132 48 -30 121 -57 153 -57 14 0 30 -5 36
-11 16 -16 141 1 200 27 17 8 38 14 46 14 9 0 17 3 19 8 2 4 23 21 47 37 74
50 136 140 170 244 6 19 11 70 11 115 0 140 -67 277 -172 353 -60 43 -147 83
-179 83 -15 0 -31 5 -34 10 -3 6 -30 10 -60 10 -30 0 -57 -4 -60 -10z m43 -87
c82 -39 117 -95 117 -185 -1 -48 -5 -63 -31 -95 -53 -66 -88 -83 -166 -83
l-69 0 -53 53 c-44 43 -54 60 -59 98 -7 49 -2 77 19 125 37 85 156 128 242 87z"/>
<path d="M1826 2920 c-131 -50 -219 -155 -249 -296 -29 -137 62 -310 200 -379
53 -28 66 -30 164 -30 95 0 111 3 160 27 75 38 133 98 171 176 29 58 33 76 33
147 0 55 -6 97 -20 134 -22 60 -97 149 -155 185 -89 56 -213 70 -304 36z m108
-161 c57 -51 58 -135 3 -189 -27 -26 -38 -30 -87 -30 -40 0 -63 5 -76 18 -35
31 -54 71 -54 112 0 33 7 47 40 80 36 36 45 40 90 40 42 0 56 -5 84 -31z"/>
<path d="M4758 2920 c-67 -25 -110 -54 -156 -104 -165 -179 -113 -461 105
-572 53 -27 67 -29 163 -29 94 0 111 3 161 28 70 34 142 109 177 185 23 48 27
71 27 142 0 75 -4 93 -31 150 -83 173 -282 263 -446 200z m112 -170 c33 -33
40 -47 40 -80 0 -41 -19 -81 -54 -112 -13 -13 -36 -18 -75 -18 -48 0 -61 4
-88 29 -56 51 -56 127 0 186 28 31 38 35 85 35 48 0 55 -3 92 -40z"/>
</g>
</svg>
